<?xml version="1.0" standalone="no"?>
<!DOCTYPE svg PUBLIC "-//W3C//DTD SVG 20010904//EN"
 "http://www.w3.org/TR/2001/REC-SVG-20010904/DTD/svg10.dtd">
<svg version="1.0" xmlns="http://www.w3.org/2000/svg"
 width="1000.000000pt" height="999.000000pt" viewBox="0 0 1000.000000 999.000000"
 preserveAspectRatio="xMidYMid meet">
<metadata>
Created by potrace 1.16, written by Peter Selinger 2001-2019
</metadata>
<g transform="translate(0.000000,999.000000) scale(0.100000,-0.100000)"
fill="#3182ce" stroke="none">
<path d="M4690 9670 c-897 -59 -1766 -380 -2488 -919 -179 -134 -292 -231
-471 -406 -317 -310 -579 -646 -791 -1010 -123 -213 -292 -584 -368 -810 -124
-368 -178 -611 -234 -1055 -18 -142 -18 -791 0 -955 105 -961 467 -1809 1093
-2560 108 -129 405 -426 534 -534 707 -590 1503 -947 2389 -1071 216 -30 398
-41 661 -41 259 0 394 9 633 41 1386 185 2636 1008 3367 2215 109 179 278 517
350 700 104 262 210 639 255 900 79 464 92 990 34 1431 -104 795 -408 1548
-884 2189 -211 285 -551 640 -810 846 -736 588 -1552 926 -2470 1024 -171 18
-623 27 -800 15z m-998 -2770 c32 -11 97 -39 145 -61 49 -23 124 -59 168 -79
44 -21 141 -67 215 -102 74 -36 178 -86 230 -111 52 -25 154 -73 225 -107 72
-34 168 -80 215 -102 47 -22 128 -61 180 -85 201 -95 578 -271 638 -298 34
-15 62 -31 62 -35 0 -5 -100 -61 -222 -126 -269 -142 -286 -151 -556 -294
-219 -116 -219 -116 -252 -80 -7 8 -166 141 -250 210 -37 30 -147 123 -244
205 -98 83 -210 177 -250 210 -110 90 -430 359 -436 365 -7 8 -168 142 -264
221 -119 97 -116 88 -49 148 79 71 159 123 213 138 58 17 158 9 232 -17z
m3523 -525 c101 -28 193 -116 241 -230 26 -63 16 -213 -19 -287 -39 -79 -121
-151 -243 -213 -54 -27 -133 -68 -174 -90 -41 -23 -124 -68 -185 -100 -109
-58 -133 -70 -330 -175 -55 -29 -123 -65 -151 -81 l-52 -29 -16 -88 c-15 -82
-30 -177 -76 -469 -27 -174 -49 -311 -65 -413 -8 -47 -19 -121 -25 -165 -6
-44 -17 -125 -26 -180 -31 -203 -43 -282 -54 -360 -15 -109 -35 -236 -86 -565
-56 -365 -113 -443 -373 -511 -66 -17 -85 -19 -91 -9 -4 7 -11 47 -14 89 -6
73 -20 208 -51 486 -8 72 -19 182 -25 245 -6 63 -18 174 -25 245 -8 72 -21
194 -30 273 -8 78 -22 204 -30 280 -8 75 -19 184 -25 242 -20 205 -34 320 -40
330 -4 7 -50 -12 -126 -53 -65 -35 -168 -90 -229 -122 -60 -32 -132 -70 -160
-85 -27 -15 -88 -48 -135 -72 -97 -51 -233 -123 -335 -178 -38 -21 -115 -61
-170 -90 -55 -29 -101 -54 -103 -55 -4 -3 -27 -142 -42 -245 -6 -47 -18 -123
-25 -170 -8 -47 -21 -134 -30 -195 -34 -234 -50 -272 -134 -311 -67 -32 -129
-43 -135 -23 -2 8 -11 50 -20 94 -9 44 -21 98 -26 120 -5 22 -16 74 -25 115
-9 41 -22 102 -30 135 -16 71 -42 190 -57 260 -5 28 -16 75 -23 105 -7 30 -21
93 -31 139 l-19 84 -175 186 c-96 102 -237 251 -314 331 -77 80 -167 173 -200
207 l-60 63 34 35 c38 39 122 85 155 85 47 0 115 -29 490 -210 328 -158 310
-152 360 -122 17 10 89 49 160 87 72 37 191 100 265 140 74 40 185 98 245 130
61 32 137 72 170 90 126 68 194 105 330 175 77 40 145 76 150 80 6 4 64 36
130 70 66 35 176 93 245 130 69 37 179 95 245 130 66 34 143 75 170 90 28 15
89 48 138 74 48 25 126 67 175 92 48 26 110 59 137 74 28 15 100 54 160 85 61
32 180 95 265 140 298 159 292 156 395 179 27 6 89 -2 150 -19z"/>
</g>
</svg>
